**ABCDEFGHIJKLMNOPQRSTUVWXYZabcdefghijklmnopqrstuvwxyz**************************
**PARASOLID !"#$%&'()*+,-./:;<=>?@[\]^_`{|}~0123456789**************************
**PART1;
MC=AMD64;
MC_MODEL=Intel64 Family 6 Model 165 Stepping 5, GenuineIntel;
MC_ID=unknown;
OS=Windows_NT;
OS_RELEASE=unknown;
FRU=Parasolid Version 36.1, build 228,  1-18-2025;
APPL=SOLIDWORKS 2025-2025135;
SITE=;
USER=unknown;
FORMAT=text;
GUISE=transmit;
KEY=Chain V3;
FILE=Chain V3.x_t;
DATE=Sun Aug 31 20:58:35 2025;
**PART2;
SCH=SCH_3601228_36001;
USFLD_SIZE=0;
**PART3;
**END_OF_HEADER*****************************************************************
T51 : TRANSMIT FILE created by modeller version 360122823 SCH_3601228_36001_1300
6231 0 10 21 CCCCI7 lattice222 0 CCCI4 mesh1006 0 I8 polyline1008 0 CCCCCCCCCCA1
6 mesh_offset_data206 0 Z1 7 2 3 0 0 0 0 0 0 0 0 1e3 1e-8 0 0 0 1 0 1 4 0 81 255
 2 2 7 5 1 0 0 0 0 0 0 70 11 CI9 list_type0 0 1 uI10 notransmit0 0 1 lCCCDCCDI12
 finger_index0 0 1 dI12 finger_block1012 0 CZ3 0 4 T1 0 0 1 20 1 6 6 11 255 4 5
 0 1 7 8 1 9 0 0 0 12 36 CCCI7 lattice222 0 CCCI4 mesh1006 0 I8 polyline1008 0 C
CCCCCCDI5 owner1040 0 CCCI16 boundary_lattice222 0 CCCI13 boundary_mesh1006 0 I1
7 boundary_polyline1008 0 CCCA16 index_map_offset0 0 1 dA9 index_map82 0 A17 nod
e_id_index_map82 0 A20 schema_embedding_map82 0 A5 child12 0 A14 lowest_node_id0
 0 1 dA16 mesh_offset_data206 0 Z7 237 10 11 0 0 0 0 0 0 0 1e3 1e-8 4 12 0 1 0 1
 1 13 0 14 15 0 0 0 16 17 0 0 0 0 0 0 0 0 100 10 CCCCCCCCCA9 precision229 0 Z8 6
 4 0 0 1 0 0 0 1 0 0 0 1 0 0 0 1 0 ?0 11 9 3 0 1 12 18 1 19 4 0 0 12 12 102 20 2
1 0 0 0 0 0 0 0 1e3 1e-8 9 22 7 1 0 1 1 23 0 24 25 0 0 0 26 27 0 0 0 0 0 0 0 0 1
00 18 4 9 0 0 1 0 0 0 1 0 0 0 1 0 0 0 1 0 ?0 11 19 1 0 1 22 28 1 0 9 0 0 12 22 1
38 29 30 0 0 0 0 0 0 0 1e3 1e-8 19 31 12 1 0 1 1 32 0 33 34 0 0 0 35 36 0 0 0 0
 0 0 0 0 100 28 2 19 0 0 1 0 0 0 1 0 0 0 1 0 0 0 1 0 ?0 81 1 29 138 37 22 38 0 0
 0 0 70 30 0 4 T22 0 0 4 20 1 39 39 13 255 32 4 0 22 0 40 0 0 41 0 51 255 33 25
 0 42 43 0 0 -.00856615 .0386088939957635 -.00856615 622005463038311e-31 -1 -217
1720466856745e-46 .0035687 -1 -622005463038311e-31 3491481338843135e-30 31 255 3
4 29 0 36 44 0 0 +.00856615 .0386088939957635 -.00856615 0 1 0 1 0 -349148133884
3135e-30 .0035687 19 9 CCCCCCI5 frame230 0 CA5 owner12 0 Z35 5 0 22 41 0 45 0 V0
 16 255 36 17 0 ?46 0 47 34 0 0 22 17 255 46 0 48 46 46 0 49 36 0 0 +16 47 13 0
 ?50 36 51 44 0 0 22 17 50 0 52 50 50 0 53 47 0 0 +16 51 9 0 ?54 47 55 56 0 0 22
 31 44 28 0 47 56 34 0 +-.00856615 .0386088939957635 -.00856615 -126337505300589
e-30 -1 4411050421530025e-46 -1 126337505300589e-30 3491481338843135e-30 .003568
7 31 56 27 0 51 57 44 0 +-.00856615 .0246642939957635 -.00856615 244929359829470
5e-31 -1 -855166289179392e-45 -1 -2449293598294705e-31 3491481338843135e-30 .003
5687 31 57 26 0 55 0 56 0 +.00856615 .0246642939957635 -.00856615 0 1 0 1 0 -349
1481338843135e-30 .0035687 16 55 6 0 ?58 51 0 57 0 0 22 17 58 0 59 58 58 0 60 55
 0 0 +15 255 59 8 0 58 42 61 17 60 0 62 60 60 0 58 55 0 0 -15 62 7 0 60 40 0 14
 255 40 2 63 ?64 0 65 32 66 -0 0 64 0 45 81 1 63 131 67 40 68 0 0 69 70 14 64 12
 69 ?71 40 52 32 72 -0 0 71 40 45 15 65 10 0 54 40 62 54 255 66 22 0 40 0 72 0 -
-1734723475976805e-33 .0246642939957635 -.00856615 -3491481338843135e-30 0 -1 .0
0856615 .0035687 -1 0 3491481338843135e-30 13 45 3 0 0 0 0 0 0 35 40 51 72 23 0
 64 66 43 0 --.00856615 .0246642939957635 -.00856615 2488021852153245e-31 1 -868
688186742698e-45 .0035687 1 -2488021852153245e-31 -3491481338843135e-30 54 43 24
 0 71 72 33 0 --1734723475976805e-33 .0386088939957635 -.00856615 -3491481338843
135e-30 0 -1 .00856615 .0035687 -1 0 3491481338843135e-30 14 71 16 73 ?42 64 48
 32 43 -0 0 42 64 45 81 1 73 135 67 71 74 0 69 75 76 14 42 20 75 ?0 71 59 32 33
 -0 0 0 71 45 15 48 18 0 46 71 77 15 77 15 0 53 71 0 17 53 0 77 53 53 0 50 47 0
 0 -81 1 75 137 67 42 78 0 73 0 79 80 7 CCCCCDI12 legal_owners0 17 1 lCZ1 67 80
 81 9000 1 1 1 1 1 1 1 1 0 FFFFTFTFFFFFFFFFF1 81 1 78 115 82 42 0 75 74 0 83 82
 255 1 79 173277332 80 1 82 0 84 8001 0 0 0 0 3 5 0 0 0 FFFFTFTFFFFFFFFFF2 81 1
 74 114 82 71 0 73 85 78 86 83 255 3 83 .792156862745098 .819607843137255 .93333
3333333333 81 1 85 113 82 64 0 69 68 74 87 83 3 86 .792156862745098 .81960784313
7255 .933333333333333 81 1 69 133 67 64 85 0 63 73 88 81 1 68 112 82 40 0 63 0 8
5 89 83 3 87 .792156862745098 .819607843137255 .933333333333333 83 3 89 .7921568
62745098 .819607843137255 .933333333333333 82 1 88 172753044 79 255 15 84 SDL/TY
SA_COLOUR79 14 81 SWEntUnchanged82 1 76 173146260 17 54 0 65 54 54 0 90 51 0 0 +
17 90 0 91 90 90 0 54 51 0 0 -15 91 11 0 90 64 0 15 52 14 0 50 64 91 82 1 70 172
621972 15 61 19 0 49 42 0 17 49 0 61 49 49 0 46 36 0 0 -19 41 34 0 22 0 35 32 0
 S0 74 4 CI16 index_map_offset0 0 1 dCCZ20 39 4 0 0 38 75 78 29 0 0 0 0 0 0 0 0
 0 0 0 0 0 0 0 0 81 2 38 61 92 22 0 29 0 0 93 0 80 2 92 94 95 9000 0 0 0 0 3 5 0
 0 0 FFTFTTTFFTFFFFFFF10 10 98 255 15 93 66 111 100 121 45 77 111 118 101 47 67
 111 112 121 50 79 23 95 SWIMPLICITBODYNAME_ID_U80 1 37 96 97 8017 0 0 0 0 0 0 0
 0 0 TTTTTTTTTTTTTFTFT3 79 13 97 SDL/TYSA_NAME81 1 20 102 37 12 98 0 0 0 0 70 21
 0 4 T12 0 0 4 20 1 99 99 13 23 9 0 12 0 100 0 0 101 0 50 255 24 49 0 100 102 0
 0 +0 .063273187991527 0 0 1 0 0 0 1 31 25 51 0 103 104 0 0 +0 .063273187991527
 -1734723475976805e-33 0 1 0 0 0 1 .0035687 19 26 1 0 12 101 0 105 0 V0 16 27 36
 0 ?106 0 107 108 0 0 12 17 106 0 109 106 106 0 110 27 0 0 +16 107 38 0 ?111 27
 112 113 0 0 12 31 108 48 0 27 113 104 0 +0 .049328587991527 0 0 1 0 0 0 1 .0035
687 31 113 47 0 107 0 108 0 +0 .049328587991527 -.0171323 0 -1 2449293598294705e
-31 0 -2449293598294705e-31 -1 .0035687 31 104 50 0 112 108 25 0 +0 .06327318799
1527 -.0171323 0 -1 -126337505300589e-30 0 126337505300589e-30 -1 .0035687 16 11
2 40 0 ?114 107 103 104 0 0 12 17 114 0 115 114 114 0 116 112 0 0 +16 103 42 0 ?
117 112 0 25 0 0 12 17 117 0 118 117 117 0 119 103 0 0 +15 118 17 0 117 120 0 17
 119 0 121 119 119 0 117 103 0 0 -15 121 35 0 119 122 0 14 122 30 123 ?0 124 109
 23 125 -0 0 120 124 105 81 1 123 95 67 122 126 0 0 127 128 14 124 24 127 ?122 1
29 115 23 130 -0 0 122 129 105 15 109 34 0 106 122 121 51 125 44 0 122 0 130 0 -
0 .063273187991527 -1734723475976805e-33 0 -1 622005463038311e-31 .0035687 0 -62
2005463038311e-31 -1 14 120 14 131 ?129 100 118 23 24 +100 100 100 122 105 13 10
5 7 0 0 0 0 0 0 26 129 14 129 18 132 ?124 120 133 23 102 -0 0 124 0 105 81 1 132
 100 67 129 134 0 131 135 136 15 133 22 0 111 129 137 54 102 46 0 129 130 24 0 -
0 .049328587991527 -.00856615 1 0 0 .00856615 .0035687 0 0 -1 51 130 45 0 124 12
5 102 0 -0 .049328587991527 -.0171323 0 1 2488021852153245e-31 .0035687 0 -24880
21852153245e-31 1 17 111 0 133 111 111 0 138 107 0 0 +15 137 23 0 110 129 0 17 1
10 0 137 110 110 0 106 27 0 0 -17 138 0 139 138 138 0 111 107 0 0 -15 139 29 0 1
38 124 0 81 1 134 76 82 129 0 132 140 141 142 81 1 131 98 67 120 140 0 127 132 1
43 81 1 135 101 67 100 144 0 132 0 145 82 1 136 -1760165734 14 100 10 135 ?120 0
 146 23 24 +120 120 0 120 105 81 1 144 74 82 100 0 135 0 140 147 82 1 145 -17488
28006 81 1 140 75 82 120 0 131 144 134 148 83 3 147 .792156862745098 .8196078431
37255 .933333333333333 83 3 148 .792156862745098 .819607843137255 .9333333333333
33 15 146 13 0 116 100 0 17 116 0 146 116 116 0 114 112 0 0 -81 1 127 97 67 124
 141 0 123 131 149 82 1 143 -1749286758 81 1 141 77 82 124 0 127 134 126 150 82
 1 149 -1760034662 81 1 126 78 82 122 0 123 141 0 151 83 3 150 .792156862745098
 .819607843137255 .933333333333333 83 3 151 .792156862745098 .819607843137255 .9
33333333333333 83 3 142 .792156862745098 .819607843137255 .933333333333333 15 11
5 28 0 114 124 139 82 1 128 -1759510374 19 101 8 0 12 0 26 23 0 S0 74 20 99 4 0
 0 98 135 126 20 0 0 0 0 0 0 0 0 0 0 0 0 0 0 0 0 81 2 98 4 92 12 0 20 0 0 152 0
 98 6 152 83 112 108 105 116 49 81 1 10 237 37 7 153 0 0 0 0 70 11 0 4 T7 0 0 4
 20 1 154 154 13 13 105 0 7 0 155 0 0 156 0 50 14 142 0 155 157 0 0 +0 0 0 77506
7886683435e-31 1 -2449293598294705e-31 0 2449293598294705e-31 1 31 15 29 0 158 1
59 0 0 +0 .0139446 -1734723475976805e-33 0 1 0 0 0 1 .0035687 19 16 168 0 7 156
 0 160 0 V0 16 17 183 0 ?161 0 158 162 0 0 7 17 161 0 163 161 161 0 164 17 0 0 +
16 158 17 0 ?165 17 166 15 0 0 7 31 162 27 0 17 167 159 0 +0 -209810163570322e-3
2 -.0171323 0 -1 2449293598294705e-31 0 -2449293598294705e-31 -1 .0035687 31 167
 26 0 168 0 162 0 +0 0 0 0 1 0 0 0 1 .0035687 31 159 28 0 166 162 15 0 +0 .01394
46 -.0171323 0 -1 -126337505300589e-30 0 126337505300589e-30 -1 .0035687 16 166
 13 0 ?169 158 168 159 0 0 7 17 169 0 170 169 169 0 171 166 0 0 +16 168 6 0 ?172
 166 0 167 0 0 7 17 172 0 173 172 172 0 174 168 0 0 +15 173 8 0 172 175 176 17 1
74 0 177 174 174 0 172 168 0 0 -15 177 115 0 174 178 0 14 178 111 179 ?180 155 1
77 13 14 -155 155 181 155 160 81 1 179 229 67 178 182 0 0 183 184 14 180 16 183
 ?175 178 185 13 186 -0 0 0 175 160 14 155 106 187 ?178 0 163 13 14 -178 178 178
 0 160 14 181 12 188 ?0 175 170 13 189 -0 0 175 178 160 13 160 187 0 0 0 0 0 0 1
6 155 81 1 188 234 67 181 190 0 187 191 192 14 175 20 191 ?181 180 173 13 157 -0
 0 180 181 160 15 170 14 0 169 181 193 51 189 23 0 181 0 186 0 -0 -1998567037398
115e-33 -.0171323 0 1 2488021852153245e-31 .0035687 0 -2488021852153245e-31 1 54
 186 24 0 180 189 157 0 -0 .0139446 -.00856615 1 0 0 .00856615 .0035687 0 0 -1 5
1 157 25 0 175 186 14 0 -0 .0139446 -1734723475976805e-33 0 -1 622005463038311e-
31 .0035687 0 -622005463038311e-31 -1 15 193 11 0 164 181 0 17 164 0 193 164 164
 0 161 17 0 0 -81 1 191 236 67 175 194 0 188 0 195 81 1 194 212 82 175 0 191 196
 190 197 82 1 195 -1739063142 81 1 196 211 82 180 0 183 182 194 198 81 1 190 213
 82 181 0 188 194 0 199 83 3 197 .792156862745098 .819607843137255 .933333333333
333 83 3 199 .792156862745098 .819607843137255 .933333333333333 81 1 183 230 67
 180 196 0 179 187 200 81 1 182 210 82 178 0 179 201 196 202 83 3 198 .792156862
745098 .819607843137255 .933333333333333 81 1 201 209 82 155 0 187 0 182 203 83
 3 202 .792156862745098 .819607843137255 .933333333333333 81 1 187 232 67 155 20
1 0 183 188 204 83 3 203 .792156862745098 .819607843137255 .933333333333333 82 1
 204 -1730674534 82 1 200 -793247615 82 1 192 -1739587430 15 163 110 0 161 155 0
 15 185 18 0 165 180 205 17 165 0 185 165 165 0 206 158 0 0 +15 205 15 0 171 180
 0 17 171 0 205 171 171 0 169 166 0 0 -17 206 0 176 206 206 0 165 158 0 0 -15 17
6 19 0 206 175 0 82 1 184 -1731264358 19 156 167 0 7 0 16 13 0 S0 74 20 154 4 0
 0 153 191 190 10 0 0 0 0 0 0 0 0 0 0 0 0 0 0 0 0 81 2 153 61 92 7 0 10 0 0 207
 0 98 6 207 83 112 108 105 116 49 74 20 6 1 0 0 2 0 0 0 0 0 0 0 0 0 0 0 0 0 0 0
 0 0 0 0 80 2 5 208 209 9000 0 0 0 0 3 5 0 0 0 TFFFFFFFFFFFFFFFF9 1 79 18 209 MU
LTI_BODY_ID_20011 0 
