**ABCDEFGHIJKLMNOPQRSTUVWXYZabcdefghijklmnopqrstuvwxyz**************************
**PARASOLID !"#$%&'()*+,-./:;<=>?@[\]^_`{|}~0123456789**************************
**PART1;
MC=AMD64;
MC_MODEL=Intel64 Family 6 Model 165 Stepping 5, GenuineIntel;
MC_ID=unknown;
OS=Windows_NT;
OS_RELEASE=unknown;
FRU=Parasolid Version 36.1, build 228,  1-18-2025;
APPL=SOLIDWORKS 2025-2025135;
SITE=;
USER=unknown;
FORMAT=text;
GUISE=transmit;
KEY=Chain V1;
FILE=Chain V1.x_t;
DATE=Sat Aug 30 13:05:42 2025;
**PART2;
SCH=SCH_3601228_36001;
USFLD_SIZE=0;
**PART3;
**END_OF_HEADER*****************************************************************
T51 : TRANSMIT FILE created by modeller version 360122823 SCH_3601228_36001_1300
6231 0 10 21 CCCCI7 lattice222 0 CCCI4 mesh1006 0 I8 polyline1008 0 CCCCCCCCCCA1
6 mesh_offset_data206 0 Z1 7 2 3 0 0 0 0 0 0 0 0 1e3 1e-8 0 0 0 1 0 1 4 0 81 255
 2 2 7 5 1 0 0 0 0 0 0 70 11 CI9 list_type0 0 1 uI10 notransmit0 0 1 lCCCDCCDI12
 finger_index0 0 1 dI12 finger_block1012 0 CZ3 0 4 T1 0 0 1 20 1 6 6 11 255 4 5
 0 1 7 8 1 9 0 0 0 12 36 CCCI7 lattice222 0 CCCI4 mesh1006 0 I8 polyline1008 0 C
CCCCCCDI5 owner1040 0 CCCI16 boundary_lattice222 0 CCCI13 boundary_mesh1006 0 I1
7 boundary_polyline1008 0 CCCA16 index_map_offset0 0 1 dA9 index_map82 0 A17 nod
e_id_index_map82 0 A20 schema_embedding_map82 0 A5 child12 0 A14 lowest_node_id0
 0 1 dA16 mesh_offset_data206 0 Z7 145 10 11 0 0 0 0 0 0 0 1e3 1e-8 4 12 0 1 0 1
 1 13 0 14 15 0 0 0 16 17 0 0 0 0 0 0 0 0 100 10 CCCCCCCCCA9 precision229 0 Z8 6
 4 0 0 1 0 0 0 1 0 0 0 1 0 0 0 1 0 ?0 11 9 3 0 1 12 18 1 19 4 0 0 12 12 126 20 2
1 0 0 0 0 0 0 0 1e3 1e-8 9 22 7 1 0 1 1 23 0 24 25 0 0 0 26 27 0 0 0 0 0 0 0 0 1
00 18 4 9 0 0 1 0 0 0 1 0 0 0 1 0 0 0 1 0 ?0 11 19 1 0 1 22 28 1 0 9 0 0 12 22 1
04 29 30 0 0 0 0 0 0 0 1e3 1e-8 19 31 12 1 0 1 1 32 0 33 34 0 0 0 35 36 0 0 0 0
 0 0 0 0 100 28 2 19 0 0 1 0 0 0 1 0 0 0 1 0 0 0 1 0 ?0 81 1 29 104 37 22 38 0 0
 0 0 70 30 0 4 T22 0 0 6 20 1 39 39 13 255 32 4 0 22 0 40 0 0 41 0 51 255 33 25
 0 42 43 0 0 -0 .0139446 -1734723475976805e-33 0 -1 622005463038311e-31 .0035687
 0 -622005463038311e-31 -1 31 255 34 29 0 36 44 0 0 +0 .0139446 -173472347597680
5e-33 0 1 0 0 0 1 .0035687 19 9 CCCCCCI5 frame230 0 CA5 owner12 0 Z35 5 0 22 41
 0 45 0 V0 16 255 36 17 0 ?46 0 47 34 0 0 22 17 255 46 0 48 46 46 0 49 36 0 0 +1
6 47 13 0 ?50 36 51 44 0 0 22 17 50 0 52 50 50 0 53 47 0 0 +16 51 9 0 ?54 47 55
 56 0 0 22 31 44 28 0 47 56 34 0 +0 .0139446 -.0171323 0 -1 -126337505300589e-30
 0 126337505300589e-30 -1 .0035687 31 56 27 0 51 57 44 0 +0 -209810163570322e-32
 -.0171323 0 -1 2449293598294705e-31 0 -2449293598294705e-31 -1 .0035687 31 57 2
6 0 55 0 56 0 +0 0 0 0 1 0 0 0 1 .0035687 16 55 6 0 ?58 51 0 57 0 0 22 17 58 0 5
9 58 58 0 60 55 0 0 +15 255 59 8 0 58 42 61 17 60 0 62 60 60 0 58 55 0 0 -15 62
 7 0 60 40 0 14 255 40 2 63 ?64 0 65 32 66 -0 0 64 0 45 81 1 63 97 67 40 68 0 0
 69 70 14 64 12 69 ?71 40 52 32 72 -0 0 71 40 45 15 65 10 0 54 40 62 54 255 66 2
2 0 40 0 72 0 -0 0 -.00856615 1 0 0 .00856615 .0035687 0 0 -1 13 45 3 0 0 0 0 0
 0 35 40 51 72 23 0 64 66 43 0 -0 -1998567037398115e-33 -.0171323 0 1 2488021852
153245e-31 .0035687 0 -2488021852153245e-31 1 54 43 24 0 71 72 33 0 -0 .0139446
 -.00856615 1 0 0 .00856615 .0035687 0 0 -1 14 71 16 73 ?42 64 48 32 43 -0 0 42
 64 45 81 1 73 101 67 71 74 0 69 75 76 14 42 20 75 ?0 71 59 32 33 -0 0 0 71 45 1
5 48 18 0 46 71 77 15 77 15 0 53 71 0 17 53 0 77 53 53 0 50 47 0 0 -81 1 75 103
 67 42 78 0 73 0 79 80 7 CCCCCDI12 legal_owners0 17 1 lCZ1 67 80 81 9000 1 1 1 1
 1 1 1 1 0 FFFFTFTFFFFFFFFFF1 81 1 78 81 82 42 0 75 74 0 83 82 255 1 79 -7928543
99 80 1 82 0 84 8001 0 0 0 0 3 5 0 0 0 FFFFTFTFFFFFFFFFF2 81 1 74 80 82 71 0 73
 85 78 86 83 255 3 83 .792156862745098 .819607843137255 .933333333333333 81 1 85
 79 82 64 0 69 68 74 87 83 3 86 .792156862745098 .819607843137255 .9333333333333
33 81 1 69 99 67 64 85 0 63 73 88 81 1 68 78 82 40 0 63 0 85 89 83 3 87 .7921568
62745098 .819607843137255 .933333333333333 83 3 89 .792156862745098 .81960784313
7255 .933333333333333 82 1 88 -793640831 79 255 15 84 SDL/TYSA_COLOUR79 14 81 SW
EntUnchanged82 1 76 -793247615 17 54 0 65 54 54 0 90 51 0 0 +17 90 0 91 90 90 0
 54 51 0 0 -15 91 11 0 90 64 0 15 52 14 0 50 64 91 82 1 70 -794361727 15 61 19 0
 49 42 0 17 49 0 61 49 49 0 46 36 0 0 -19 41 34 0 22 0 35 32 0 S0 74 4 CI16 inde
x_map_offset0 0 1 dCCZ20 39 6 0 0 92 75 93 38 78 29 0 0 0 0 0 0 0 0 0 0 0 0 0 0
 81 2 92 61 94 22 0 93 0 0 95 0 81 1 93 69 96 22 92 38 0 0 97 81 1 38 70 98 22 9
3 29 0 0 99 80 1 98 100 101 8041 0 0 0 0 3 5 0 0 0 TTTFFFFFFFFFFFFFF2 83 1 99 0
 79 23 101 SDL/TYSA_TRANSLUCENCY_280 1 96 82 102 8040 0 0 0 0 3 5 0 0 0 TTTFFFFF
FFFFFFFFF2 83 3 97 .792156862745098 .819607843137255 .933333333333333 79 17 102
 SDL/TYSA_COLOUR_280 2 94 103 104 9000 0 0 0 0 3 5 0 0 0 FFTFTTTFFTFFFFFFF10 10
 98 255 6 95 83 119 101 101 112 49 79 23 104 SWIMPLICITBODYNAME_ID_U80 1 37 105
 106 8017 0 0 0 0 0 0 0 0 0 TTTTTTTTTTTTTFTFT3 79 13 106 SDL/TYSA_NAME81 1 20 12
6 37 12 107 0 0 0 0 70 21 0 4 T12 0 0 6 20 1 108 108 13 23 4 0 12 0 109 0 0 110
 0 51 24 25 0 111 112 0 0 -0 .06076786259176 -1734723475976805e-33 0 -1 62200546
3038311e-31 .0035687 0 -622005463038311e-31 -1 31 25 29 0 27 113 0 0 +0 .0607678
6259176 -1734723475976805e-33 0 1 0 0 0 1 .0035687 19 26 5 0 12 110 0 114 0 V0 1
6 27 17 0 ?115 0 116 25 0 0 12 17 115 0 117 115 115 0 118 27 0 0 +16 116 13 0 ?1
19 27 120 113 0 0 12 17 119 0 121 119 119 0 122 116 0 0 +16 120 9 0 ?123 116 124
 125 0 0 12 31 113 28 0 116 125 25 0 +0 .06076786259176 -.0171323 0 -1 -12633750
5300589e-30 0 126337505300589e-30 -1 .0035687 31 125 27 0 120 126 113 0 +0 .0468
2326259176 -.0171323 0 -1 2449293598294705e-31 0 -2449293598294705e-31 -1 .00356
87 31 126 26 0 124 0 125 0 +0 .04682326259176 0 0 1 0 0 0 1 .0035687 16 124 6 0
 ?127 120 0 126 0 0 12 17 127 0 128 127 127 0 129 124 0 0 +15 128 8 0 127 111 13
0 17 129 0 131 129 129 0 127 124 0 0 -15 131 7 0 129 109 0 14 109 2 132 ?133 0 1
34 23 135 -0 0 133 0 114 81 1 132 119 67 109 136 0 0 137 138 14 133 12 137 ?139
 109 121 23 140 -0 0 139 109 114 15 134 10 0 123 109 131 54 135 22 0 109 0 140 0
 -0 .04682326259176 -.00856615 1 0 0 .00856615 .0035687 0 0 -1 13 114 3 0 0 0 0
 0 0 26 109 51 140 23 0 133 135 112 0 -0 .04682326259176 -.0171323 0 1 248802185
2153245e-31 .0035687 0 -2488021852153245e-31 1 54 112 24 0 139 140 24 0 -0 .0607
6786259176 -.00856615 1 0 0 .00856615 .0035687 0 0 -1 14 139 16 141 ?111 133 117
 23 112 -0 0 111 133 114 81 1 141 123 67 139 142 0 137 143 144 14 111 20 143 ?0
 139 128 23 24 -0 0 0 139 114 15 117 18 0 115 139 145 15 145 15 0 122 139 0 17 1
22 0 145 122 122 0 119 116 0 0 -81 1 143 125 67 111 146 0 141 0 147 81 1 146 103
 82 111 0 143 142 0 148 82 1 147 -172490612 81 1 142 102 82 139 0 141 149 146 15
0 83 3 148 .792156862745098 .819607843137255 .933333333333333 81 1 149 101 82 13
3 0 137 136 142 151 83 3 150 .792156862745098 .819607843137255 .933333333333333
 81 1 137 121 67 133 149 0 132 141 152 81 1 136 100 82 109 0 132 0 149 153 83 3
 151 .792156862745098 .819607843137255 .933333333333333 83 3 153 .79215686274509
8 .819607843137255 .933333333333333 82 1 152 -173014900 82 1 144 -172621684 17 1
23 0 134 123 123 0 154 120 0 0 +17 154 0 155 154 154 0 123 120 0 0 -15 155 11 0
 154 133 0 15 121 14 0 119 133 155 82 1 138 -173145972 15 130 19 0 118 111 0 17
 118 0 130 118 118 0 115 27 0 0 -19 110 34 0 12 0 26 23 0 S0 74 20 108 6 0 0 156
 143 157 107 146 20 0 0 0 0 0 0 0 0 0 0 0 0 0 0 81 2 156 61 94 12 0 157 0 0 158
 0 81 1 157 91 96 12 156 107 0 0 159 81 1 107 92 98 12 157 20 0 0 160 83 1 160 0
 83 3 159 .792156862745098 .819607843137255 .933333333333333 98 15 158 66 111 10
0 121 45 77 111 118 101 47 67 111 112 121 49 81 1 10 145 37 7 161 0 0 0 0 70 11
 0 4 T7 0 0 6 20 1 162 162 13 13 4 0 7 0 163 0 0 164 0 51 14 25 0 165 166 0 0 -.
00856615 .03735623129588 -.00856615 622005463038311e-31 -1 -2171720466856745e-46
 .0035687 -1 -622005463038311e-31 3491481338843135e-30 31 15 29 0 17 167 0 0 +.0
0856615 .03735623129588 -.00856615 0 1 0 1 0 -3491481338843135e-30 .0035687 19 1
6 5 0 7 164 0 168 0 V0 16 17 17 0 ?169 0 170 15 0 0 7 17 169 0 171 169 169 0 172
 17 0 0 +16 170 13 0 ?173 17 174 167 0 0 7 17 173 0 175 173 173 0 176 170 0 0 +1
6 174 9 0 ?177 170 178 179 0 0 7 31 167 28 0 170 179 15 0 +-.00856615 .037356231
29588 -.00856615 -126337505300589e-30 -1 4411050421530025e-46 -1 126337505300589
e-30 3491481338843135e-30 .0035687 31 179 27 0 174 180 167 0 +-.00856615 .023411
63129588 -.00856615 2449293598294705e-31 -1 -855166289179392e-45 -1 -24492935982
94705e-31 3491481338843135e-30 .0035687 31 180 26 0 178 0 179 0 +.00856615 .0234
1163129588 -.00856615 0 1 0 1 0 -3491481338843135e-30 .0035687 16 178 6 0 ?181 1
74 0 180 0 0 7 17 181 0 182 181 181 0 183 178 0 0 +15 182 8 0 181 165 184 17 183
 0 185 183 183 0 181 178 0 0 -15 185 7 0 183 163 0 14 163 2 186 ?187 0 188 13 18
9 -0 0 187 0 168 81 1 186 138 67 163 190 0 0 191 192 14 187 12 191 ?193 163 175
 13 194 -0 0 193 163 168 15 188 10 0 177 163 185 54 189 22 0 163 0 194 0 --17347
23475976805e-33 .02341163129588 -.00856615 -3491481338843135e-30 0 -1 .00856615
 .0035687 -1 0 3491481338843135e-30 13 168 3 0 0 0 0 0 0 16 163 51 194 23 0 187
 189 166 0 --.00856615 .02341163129588 -.00856615 2488021852153245e-31 1 -868688
186742698e-45 .0035687 1 -2488021852153245e-31 -3491481338843135e-30 54 166 24 0
 193 194 14 0 --1734723475976805e-33 .03735623129588 -.00856615 -349148133884313
5e-30 0 -1 .00856615 .0035687 -1 0 3491481338843135e-30 14 193 16 195 ?165 187 1
71 13 166 -0 0 165 187 168 81 1 195 142 67 193 196 0 191 197 198 14 165 20 197 ?
0 193 182 13 14 -0 0 0 193 168 15 171 18 0 169 193 199 15 199 15 0 176 193 0 17
 176 0 199 176 176 0 173 170 0 0 -81 1 197 144 67 165 200 0 195 0 201 81 1 200 1
22 82 165 0 197 196 0 202 82 1 201 -87818098 81 1 196 121 82 193 0 195 203 200 2
04 83 3 202 .792156862745098 .819607843137255 .933333333333333 81 1 203 120 82 1
87 0 191 190 196 205 83 3 204 .792156862745098 .819607843137255 .933333333333333
 81 1 191 140 67 187 203 0 186 195 206 81 1 190 119 82 163 0 186 0 203 207 83 3
 205 .792156862745098 .819607843137255 .933333333333333 83 3 207 .79215686274509
8 .819607843137255 .933333333333333 82 1 206 -88342386 82 1 198 -87949170 17 177
 0 188 177 177 0 208 174 0 0 +17 208 0 209 208 208 0 177 174 0 0 -15 209 11 0 20
8 187 0 15 175 14 0 173 187 209 82 1 192 -88473458 15 184 19 0 172 165 0 17 172
 0 184 172 172 0 169 17 0 0 -19 164 34 0 7 0 16 13 0 S0 74 20 162 6 0 0 210 197
 211 161 200 10 0 0 0 0 0 0 0 0 0 0 0 0 0 0 81 2 210 61 94 7 0 211 0 0 212 0 81
 1 211 110 96 7 210 161 0 0 213 81 1 161 111 98 7 211 10 0 0 214 83 1 214 0 83 3
 213 .792156862745098 .819607843137255 .933333333333333 98 15 212 66 111 100 121
 45 77 111 118 101 47 67 111 112 121 50 74 20 6 1 0 0 2 0 0 0 0 0 0 0 0 0 0 0 0
 0 0 0 0 0 0 0 80 2 5 215 216 9000 0 0 0 0 3 5 0 0 0 TFFFFFFFFFFFFFFFF9 1 79 18
 216 MULTI_BODY_ID_20011 0 
