**ABCDEFGHIJKLMNOPQRSTUVWXYZabcdefghijklmnopqrstuvwxyz**************************
**PARASOLID !"#$%&'()*+,-./:;<=>?@[\]^_`{|}~0123456789**************************
**PART1;
MC=AMD64;
MC_MODEL=Intel64 Family 6 Model 165 Stepping 5, GenuineIntel;
MC_ID=unknown;
OS=Windows_NT;
OS_RELEASE=unknown;
FRU=Parasolid Version 36.1, build 228,  1-18-2025;
APPL=SOLIDWORKS 2025-2025135;
SITE=;
USER=unknown;
FORMAT=text;
GUISE=transmit;
KEY=Chain V2;
FILE=Chain V2.x_t;
DATE=Sat Aug 30 14:06:09 2025;
**PART2;
SCH=SCH_3601228_36001;
USFLD_SIZE=0;
**PART3;
**END_OF_HEADER*****************************************************************
T51 : TRANSMIT FILE created by modeller version 360122823 SCH_3601228_36001_1300
6231 0 12 36 CCCI7 lattice222 0 CCCI4 mesh1006 0 I8 polyline1008 0 CCCCCCCDI5 ow
ner1040 0 CCCI16 boundary_lattice222 0 CCCI13 boundary_mesh1006 0 I17 boundary_p
olyline1008 0 CCCA16 index_map_offset0 0 1 dA9 index_map82 0 A17 node_id_index_m
ap82 0 A20 schema_embedding_map82 0 A5 child12 0 A14 lowest_node_id0 0 1 dA16 me
sh_offset_data206 0 Z1 285 2 3 0 0 0 0 0 0 0 1e3 1e-8 0 4 0 1 0 1 1 5 0 6 7 0 0
 0 8 9 0 0 0 0 0 0 0 0 81 255 2 2 261 10 1 11 0 0 0 0 12 70 11 CI9 list_type0 0
 1 uI10 notransmit0 0 1 lCCCDCCDI12 finger_index0 0 1 dI12 finger_block1012 0 CZ
3 0 4 T1 0 0 10 20 1 13 13 13 255 5 4 0 1 0 14 0 0 15 0 51 255 6 25 0 16 17 0 0
 -0 .0620807695265334 -1734723475976805e-33 0 -1 622005463038311e-31 .0035687 0
 -622005463038311e-31 -1 38 12 CCCCCCCCCCCA17 intersection_data204 0 Z7 106 0 9
 18 0 0 +19 20 21 22 22 23 19 9 CCCCCCI5 frame230 0 CA5 owner12 0 Z8 5 0 1 15 0
 24 0 V0 16 255 9 103 0 ?25 0 26 7 0 0 1 17 255 25 0 27 25 25 0 28 9 0 0 +16 26
 17 0 ?29 9 30 18 0 0 1 17 29 0 31 29 29 0 32 26 0 0 +16 30 13 0 ?33 26 34 35 0
 0 1 31 255 18 29 0 26 35 7 0 +0 .0620807695265334 -1734723475976805e-33 0 1 0 0
 0 1 .0035687 31 35 28 0 30 36 18 0 +0 .0620807695265334 -.0171323 0 -1 -1263375
05300589e-30 0 126337505300589e-30 -1 .0035687 31 36 27 0 34 37 35 0 +0 .0481361
695265334 -.0171323 0 -1 2449293598294705e-31 0 -2449293598294705e-31 -1 .003568
7 16 34 9 0 ?38 30 39 36 0 0 1 31 37 26 0 39 40 36 0 +0 .0481361695265334 0 0 1
 0 0 0 1 .0035687 16 39 6 0 ?41 34 42 37 0 0 1 38 40 178 0 42 43 37 0 +44 45 46
 47 47 48 16 42 118 0 ?49 39 50 40 0 0 1 31 43 179 0 50 51 40 0 +0 .0139446 -173
4723475976805e-33 0 1 0 0 0 1 .0035687 54 255 44 171 0 52 53 54 55 -0 .0139446 -
.00856615 1 0 0 .00856615 .0035687 0 0 -1 54 45 177 0 56 0 57 58 --1734723475976
805e-33 .0240680847632667 -.00856615 -3491481338843135e-30 0 -1 .00856615 .00356
87 -1 0 3491481338843135e-30 40 255 23 46 0 1 23 .0001155991675517864 .388283913
931705 ??-.000568672066731804 .01873715994693035 -.01013577569589072 -.000155208
391622409 .01865902866983625 -.01023421182878472 .000278116365346595 .0186729973
7304755 -.01021701743037824 .000659367566229857 .0187660135657017 -.010097935264
49618 .001140342910864892 .01898666127907035 -.00977327358986302 .00149590599008
1762 .01921991701414735 -.00929993184195687 .001646200257494775 .019335919299259
4 -.00886902688258692 .001666450825486405 .0193523415265703 -.00839557150397303
 .001571280222600775 .01927680130952225 -.00800181780569458 .001296171147414342
 .01908172855712675 -.00752708027405147 .000883922552053541 .0188550785139284 -.
00715706734903573 .0004349939934868825 .01870224526968745 -.00695184125776219 19
97529696412595e-20 .01865280575243665 -.00689048181619798 -.000398009806892136 .
0186942032311005 -.00694171213377035 -.000854244701679909 .01884188662318 -.0071
3827934618842 -.001323535626531984 .0190995810698024 -.00756154767216259 -.00158
2007327822355 .0192851080295913 -.00803089736584873 -.001671465693902735 .019356
43756285245 -.00844996968512726 -.001643100132402795 .0193334219244562 -.0088843
84531778 -.00151437336085537 .0192336142334978 -.00926279413674217 -.00116992257
9221696 .01900383986095605 -.00974456091922456 -.000672837692116248 .01877065162
37219 -.01009177136333836 -.000568672063034498 .01873715997075285 -.010135775705
79602 41 3 CI8 term_use0 0 1 cCZ1 47 H?-.000568672066731804 .01873715994693035 -
.01013577569589072 204 2 17 INTERSECTION_DATA17 Intersection data7 uv_type0 0 1
 u6 values0 1 1 fT92 48 4 1.25429318494614 -2.981560528937595 4.81866127825754 2
.686181912867865 1.230721946439754 -3.09808735384189 4.74107528216126 2.65522888
5866725 1.234888845360398 3.06358142907493 4.66088464277453 2.66067119995078 1.2
63176952566224 2.95576085142386 4.58866381924228 2.69795500965238 1.335808593720
154 2.81634850522631 4.49163230731641 2.79653277121226 1.4325859371212 2.7090573
92089455 4.41310600276716 2.93449953178163 1.51467669493094 2.66214576658635 4.3
7760884960046 3.056620067246985 1.60232926056552 2.655739457518725 4.37270592520
3975 -3.093775937070965 1.676238560234315 2.685665614882575 4.39549521763464 -2.
982792239174315 1.770370393915475 2.769886702109875 4.458073795607485 -2.8461514
45129545 1.85024198671849 2.89129995509347 4.54442552352998 -2.73569373020641 1.
89791471811651 3.01939734012004 4.63149859573814 -2.67219177689626 1.91272091852
06 3.135995264828795 4.70870030500392 -2.65281635458618 1.900340362800115 -3.029
832190053685 4.78631774818306 -2.66900664921313 1.854495472674915 -2.89987427996
5345 4.87441051968144 -2.729956366447535 1.76326392590993 -2.76164342141893 4.97
272853162695 -2.85623181010628 1.67068778680447 -2.68231499703654 5.031819854357
13 -2.99103922236224 1.59226084241774 -2.6541496528629 5.05329081067895 -3.10903
1539744395 1.511810268811575 -2.663124608698285 5.04642114538933 3.0523002464841
65 1.4398348934701 -2.703350113319045 5.0159523557342 2.94512160014091 1.3419540
26569056 -2.807588220576615 4.93942229139958 2.8050694301966 1.264615060243284 -
2.951918810692375 4.83872454926382 2.69986647551902 ????14 255 56 148 59 ?60 61
 62 5 45 -0 0 60 61 24 51 57 176 0 60 45 20 0 --.00856615 .0240680847632667 -.00
856615 2488021852153245e-31 1 -868688186742698e-45 .0035687 1 -2488021852153245e
-31 -3491481338843135e-30 141 255 58 40 58 58 45 14 60 154 63 ?64 56 65 5 57 -0
 0 64 56 24 54 20 175 0 66 57 67 68 --1734723475976805e-33 .0380126847632667 -.0
0856615 -3491481338843135e-30 0 -1 .00856615 .0035687 -1 0 3491481338843135e-30
 14 66 121 69 ?52 16 70 5 20 -0 0 52 16 24 51 67 174 0 64 20 71 0 -.00856615 .03
80126847632667 -.00856615 622005463038311e-31 -1 -2171720466856745e-46 .0035687
 -1 -622005463038311e-31 3491481338843135e-30 141 68 7 68 68 20 14 64 163 72 ?0
 60 73 5 67 -0 0 0 60 24 54 71 173 0 74 67 53 0 -0 0 -.00856615 1 0 0 .00856615
 .0035687 0 0 -1 14 74 133 75 ?76 52 77 5 71 -0 0 76 52 24 51 53 172 0 76 71 44
 0 -0 -1998567037398115e-33 -.0171323 0 1 2488021852153245e-31 .0035687 0 -24880
21852153245e-31 1 14 76 138 78 ?61 74 79 5 53 -0 0 61 74 24 81 1 78 273 80 76 81
 0 75 82 83 14 61 143 82 ?56 76 84 5 54 -0 0 56 76 24 15 255 79 141 0 85 76 86 1
3 24 3 0 0 0 0 0 0 8 14 14 14 107 87 ?88 0 89 5 19 -0 0 88 0 24 81 1 87 277 80 1
4 90 0 82 91 92 14 88 12 93 ?94 14 95 5 96 -0 0 94 14 24 15 89 10 0 38 14 97 54
 19 22 0 14 54 96 98 -0 .0481361695265334 -.00856615 1 0 0 .00856615 .0035687 0
 0 -1 51 54 170 0 61 44 19 0 -0 .0139446 -1734723475976805e-33 0 -1 622005463038
311e-31 .0035687 0 -622005463038311e-31 -1 51 96 23 0 88 19 17 0 -0 .04813616952
65334 -.0171323 0 1 2488021852153245e-31 .0035687 0 -2488021852153245e-31 1 141
 98 7 98 98 19 54 17 24 0 94 96 6 0 -0 .0620807695265334 -.00856615 1 0 0 .00856
615 .0035687 0 0 -1 14 94 16 99 ?16 88 31 5 17 -0 0 16 88 24 81 3 99 281 100 94
 101 0 93 102 103 0 0 14 16 20 102 ?66 94 104 5 6 -0 0 66 94 24 15 31 18 0 29 94
 105 15 105 15 0 106 94 0 17 106 0 105 106 106 0 33 30 0 0 -17 33 0 95 33 33 0 1
06 30 0 0 +15 95 14 0 33 88 107 15 107 11 0 108 88 0 17 108 0 107 108 108 0 38 3
4 0 0 -17 38 0 89 38 38 0 108 34 0 0 +81 3 102 283 100 16 109 0 99 110 111 0 0 1
5 104 8 0 41 16 112 17 41 0 104 41 41 0 113 39 0 0 +15 112 19 0 32 16 0 17 32 0
 112 32 32 0 29 26 0 0 -17 113 0 97 113 113 0 41 39 0 0 -15 97 7 0 113 14 114 15
 114 105 0 28 14 0 17 28 0 114 28 28 0 25 9 0 0 -80 7 CCCCCDI12 legal_owners0 17
 1 lCZ3 100 115 116 9000 0 0 0 0 3 5 0 0 0 FFFFTFFFFFFFFFFFF1 1 1 81 1 109 282 8
0 16 117 102 101 118 119 81 3 110 284 100 52 120 118 102 0 121 0 0 82 255 6 111
 0 -108560692 31201743 0 0 0 14 52 127 118 ?74 66 122 5 44 -0 0 74 66 24 81 1 12
0 217 123 52 124 110 125 126 127 81 1 118 285 80 52 110 0 109 0 128 82 6 121 0 -
1123015786 31201752 0 0 0 80 1 80 129 130 9000 1 1 1 1 1 1 1 1 0 FFFFTFTFFFFFFFF
FF1 82 1 128 1083113632 79 255 14 130 SWEntUnchanged80 1 123 0 131 8001 0 0 0 0
 3 5 0 0 0 FFFFTFTFFFFFFFFFF2 81 2 124 197 132 52 0 120 133 134 0 0 81 1 125 216
 123 66 133 135 117 120 136 81 1 126 218 123 74 134 137 120 138 139 83 255 3 127
 .792156862745098 .819607843137255 .933333333333333 81 2 134 199 132 74 0 126 12
4 140 0 0 81 3 137 270 100 74 126 75 141 81 142 0 0 81 1 138 219 123 76 140 81 1
26 143 144 83 3 139 .792156862745098 .819607843137255 .933333333333333 81 2 140
 201 132 76 0 138 134 145 0 0 81 3 81 272 100 76 138 78 137 146 147 0 0 81 1 143
 220 123 61 145 146 138 148 149 83 3 144 .792156862745098 .819607843137255 .9333
33333333333 81 2 145 203 132 61 0 143 140 150 0 0 81 3 146 274 100 61 143 82 81
 90 151 0 0 81 1 148 221 123 56 150 152 143 153 154 83 3 149 .792156862745098 .8
19607843137255 .933333333333333 81 2 150 205 132 56 0 148 145 155 0 0 81 3 152 2
62 100 56 148 59 0 156 157 0 0 81 1 153 222 123 60 155 156 148 158 159 83 3 154
 .792156862745098 .819607843137255 .933333333333333 81 2 155 207 132 60 0 153 15
0 160 0 0 81 3 156 264 100 60 153 63 152 135 161 0 0 81 1 158 223 123 64 160 141
 153 0 162 83 3 159 .792156862745098 .819607843137255 .933333333333333 81 2 160
 209 132 64 0 158 155 0 0 0 81 3 141 268 100 64 158 72 135 137 163 0 0 83 3 162
 .792156862745098 .819607843137255 .933333333333333 81 1 72 269 80 64 141 0 69 7
5 164 81 3 135 266 100 66 125 69 156 141 165 0 0 82 6 163 0 -108560692 31201743
 0 0 0 81 1 69 267 80 66 135 0 63 72 166 82 6 165 0 -1123015786 31201752 0 0 0 8
1 1 63 265 80 60 156 0 59 69 167 82 1 166 1084752032 81 1 59 263 80 56 152 0 0 6
3 168 82 1 167 1075118240 82 1 168 1083637920 81 1 75 271 80 74 137 0 72 78 169
 82 1 164 1075642528 82 1 169 1070465184 80 2 132 170 171 9000 0 0 0 0 3 6 0 0 0
 FFFFTFFFFFFFFFFFF9 1 79 17 171 ATOM_FACE_ID_200182 6 161 0 -108560692 31201743
 0 0 0 82 6 157 0 -1123015786 31201752 0 0 0 81 1 82 275 80 61 146 0 78 87 172 8
1 3 90 276 100 14 173 87 146 93 174 0 0 82 6 151 0 -108560692 31201743 0 0 0 81
 1 173 212 123 14 175 90 0 176 177 81 3 93 279 100 88 91 0 90 99 178 0 0 82 6 17
4 0 -1123015786 31201752 0 0 0 81 1 91 278 80 88 176 93 87 101 179 82 6 178 0 -1
08560692 31201743 0 0 0 81 1 176 213 123 88 0 91 173 180 181 81 1 101 280 80 94
 180 99 91 109 182 82 1 179 1059586206 81 1 180 214 123 94 0 101 176 117 183 82
 1 182 1059979422 81 1 117 215 123 16 0 109 180 125 184 83 3 183 .79215686274509
8 .819607843137255 .933333333333333 83 3 184 .792156862745098 .819607843137255 .
933333333333333 83 3 181 .792156862745098 .819607843137255 .933333333333333 81 2
 175 193 132 14 0 173 0 133 0 0 83 3 177 .792156862745098 .819607843137255 .9333
33333333333 81 2 133 195 132 66 0 125 175 124 0 0 82 1 172 1071120544 82 6 147 0
 -108560692 31201743 0 0 0 82 6 142 0 -108560692 31201743 0 0 0 83 3 136 .792156
862745098 .819607843137255 .933333333333333 79 15 131 SDL/TYSA_COLOUR15 122 130
 0 185 52 186 17 185 0 122 185 185 0 187 50 0 0 +15 186 131 0 188 52 189 17 188
 0 186 188 188 0 85 190 0 0 -15 189 132 0 191 52 0 17 191 0 189 191 191 0 49 42
 0 0 -17 49 0 192 49 49 0 191 42 0 0 +15 192 153 0 49 56 0 17 85 0 79 85 85 0 18
8 190 0 0 +16 190 115 0 ?85 50 193 51 0 0 1 16 50 113 0 ?185 42 190 43 0 0 1 16
 193 114 0 ?194 190 195 196 0 0 1 31 51 180 0 190 196 43 0 +0 .0139446 -.0171323
 0 -1 -126337505300589e-30 0 126337505300589e-30 -1 .0035687 31 196 181 0 193 19
7 51 0 +0 -209810163570322e-32 -.0171323 0 -1 2449293598294705e-31 0 -2449293598
294705e-31 -1 .0035687 31 197 182 0 195 198 196 0 +0 0 0 0 1 0 0 0 1 .0035687 16
 195 116 0 ?199 193 200 197 0 0 1 31 198 183 0 200 201 197 0 +.00856615 .0380126
847632667 -.00856615 0 1 0 1 0 -3491481338843135e-30 .0035687 16 200 111 0 ?202
 195 203 198 0 0 1 31 201 184 0 203 204 198 0 +-.00856615 .0380126847632667 -.00
856615 -126337505300589e-30 -1 4411050421530025e-46 -1 126337505300589e-30 34914
81338843135e-30 .0035687 16 203 119 0 ?205 200 206 201 0 0 1 31 204 185 0 206 20
7 201 0 +-.00856615 .0240680847632667 -.00856615 2449293598294705e-31 -1 -855166
289179392e-45 -1 -2449293598294705e-31 3491481338843135e-30 .0035687 16 206 117
 0 ?208 203 209 204 0 0 1 31 207 186 0 209 0 204 0 +.00856615 .0240680847632667
 -.00856615 0 1 0 1 0 -3491481338843135e-30 .0035687 16 209 120 0 ?210 206 0 207
 0 0 1 17 210 0 73 210 210 0 211 209 0 0 +15 73 166 0 210 64 212 17 211 0 62 211
 211 0 210 209 0 0 -15 62 151 0 211 56 213 15 213 152 0 208 56 192 17 208 0 213
 208 208 0 214 206 0 0 +17 214 0 215 214 214 0 208 206 0 0 -15 215 158 0 214 60
 0 15 212 167 0 216 64 0 17 216 0 212 216 216 0 202 200 0 0 -17 202 0 217 202 20
2 0 216 200 0 0 +15 217 125 0 202 66 27 15 27 126 0 25 66 0 17 205 0 65 205 205
 0 218 203 0 0 +15 65 157 0 205 60 215 17 218 0 70 218 218 0 205 203 0 0 -15 70
 124 0 218 66 217 17 199 0 84 199 199 0 219 195 0 0 +15 84 146 0 199 61 220 17 2
19 0 221 219 219 0 199 195 0 0 -15 221 137 0 219 74 0 15 220 147 0 187 61 0 17 1
87 0 220 187 187 0 185 50 0 0 -17 194 0 77 194 194 0 222 193 0 0 +15 77 136 0 19
4 74 221 17 222 0 86 222 222 0 194 193 0 0 -15 86 142 0 222 76 0 82 1 119 106011
0494 79 18 116 DOWNSTREAM_FACE_ID82 6 103 0 -108560692 31201743 0 0 0 82 1 92 10
84227744 82 1 83 1070596256 141 55 40 55 55 44 19 15 34 0 1 0 8 5 0 S0 40 23 21
 0 1 23 .000114940877162103 .3811702350567785 ??-.0009587671490183 .043190528590
10665 -.00992398573780434 -.001389846608782084 .0429365026586924 -.0094791496785
5451 -.00160806003287914 .0427752677218158 -.00902238812176834 -.001675267906391
285 .04272121865722415 -.00860674180011301 -.001628883809068635 .042758743248164
3 -.00818556647004783 -.0014397924959605 .0429015169375069 -.00773145256654723 -
.001025643034237538 .0431568348766143 -.00725915308356063 -.000552551174424997 .
0433483031379058 -.00699044882108803 -.0001327364150766304 .0434234399635667 -.0
0689600808557436 .000304647657375219 .04340372236198485 -.00692029915784283 .000
683937388218619 .04330622782550435 -.00704571635104812 .001165560652731178 .0430
7948855700095 -.00738342114893332 .00151579846289001 .04284609182774555 -.007872
4694681886 .001652932134491755 .0427394119746382 -.00829973867940673 .0016632522
2752779 .04273103448238005 -.00876370608620597 .001562308306540575 .042810875346
73435 -.00915359136746792 .0012753625480451 .0430123858762305 -.009630300245481
 .000848374190546278 .04324144156673965 -.00999763836330879 .000404351672684337
 .04338523736434585 -.01018891813308222 -956449614172468e-20 .0434280445932602 -
.01024191675571566 -.000422848385860175 .04338124295971375 -.01018388965282508 -
.000882101143123778 .04322651296354185 -.00997641002497469 -.000958767149019353
 .0431905285901067 -.00992398573780594 41 1 22 H?-.0009587671490183 .04319052859
010665 -.00992398573780434 204 92 23 4 4.98033866552958 -2.869590977700595 1.387
702841390194 2.751272296381135 4.88620522423261 -2.74155329489168 1.295683796438
96 2.882880923043935 4.7972891366536 -2.674154132897295 1.24517073639787 3.01339
746808905 4.71988508529569 -2.652943388848315 1.22896920666608 3.130218014242935
 4.64173250541103 -2.667606974591675 1.240185323795298 -3.03474459929177 4.55426
405952473 -2.72630829554177 1.28438709660033 -2.90551181908047 4.45569538556868
 -2.85008184331378 1.373996545968992 -2.766628747535815 4.39445054799066 -2.9861
34624644045 1.46760519163933 -2.68428539600491 4.37180905021915 -3.1043894592595
55 1.546269289052285 -2.654569445040845 4.37769318740753 3.0561220638723 1.62724
6311832615 -2.662256116845905 4.40741614027404 2.94875075150585 1.69928670578509
5 -2.70147388122656 4.48262511194892 2.808881701336535 1.796901412909735 -2.8037
8729622932 4.58200428409664 2.702909058144335 1.874690929185175 -2.9459682625713
55 4.66306395010935 2.660018506565195 1.90720303656814 -3.066870936217865 4.7489
2242211581 2.656752774329515 1.90970297959001 3.086206342709535 4.82225630576701
 2.688463774655345 1.885574098278555 2.976230713644015 4.91716615002372 2.776137
37115625 1.82055770613342 2.838796950147365 4.99690959487782 2.90156818222723 1.
731646218562565 2.728849967793875 5.04153266387031 3.0280437732367 1.64591718860
1575 2.669532056911295 5.05433757717762 -3.138912543860195 1.569030149385295 2.6
52785069939305 5.04032817114471 -3.02282556357967 1.492194736542546 2.6711134969
3174 4.99210056931819 -2.891826719173795 1.40319845526679 2.735334608545705 ????
74 4 CI16 index_map_offset0 0 1 dCCZ20 13 10 0 0 110 118 223 224 225 160 226 11
 158 2 0 0 0 0 0 0 0 0 0 0 81 2 223 187 227 1 0 224 0 0 0 228 81 2 224 190 229 1
 223 225 0 0 0 230 81 2 225 191 231 1 224 226 0 0 232 0 81 1 226 210 233 1 225 1
1 0 0 234 81 2 11 211 235 1 226 2 0 0 0 0 80 2 235 236 237 9000 0 0 0 0 3 5 0 0
 0 FFTFFFFFFFFFFFFFF9 1 79 16 237 BODY_RECIPE_200180 1 233 238 239 9000 1 1 1 1
 1 1 1 1 0 FFTFFFFFFFFFFFFFF1 82 1 234 213060 79 10 239 BODY_MATCH80 2 231 240 2
41 9000 0 0 0 0 3 5 0 0 0 FFTFTTTFFTFFFFFFF10 10 98 255 8 232 67 111 109 98 105
 110 101 49 79 23 241 SWIMPLICITBODYNAME_ID_U80 2 229 242 243 9000 0 0 0 0 3 5 0
 0 0 FFTFFFFFFFFFFFFFF9 1 82 1 230 55 79 30 243 LAST_BODY_MODIFYING_FEATURE_ID80
 2 227 244 245 9000 0 0 0 0 3 5 0 0 0 FFTFFFFFFFFFFFFFF9 1 82 1 228 177 79 19 24
5 ENT_TIME_STAMP_200180 2 10 246 247 9000 0 0 0 0 3 5 0 0 0 FFTFFFFFFFFFFFFFF9 1
 82 1 12 106 79 12 247 ATOM_ID_20011 0 
